<?xml version="1.0" standalone="no"?>
<!DOCTYPE svg PUBLIC "-//W3C//DTD SVG 20010904//EN"
 "http://www.w3.org/TR/2001/REC-SVG-20010904/DTD/svg10.dtd">
<svg version="1.0" xmlns="http://www.w3.org/2000/svg"
 width="260.000000pt" height="260.000000pt" viewBox="0 0 260.000000 260.000000"
 preserveAspectRatio="xMidYMid meet">
<metadata>
Created by potrace 1.11, written by Peter Selinger 2001-2013
</metadata>
<g transform="translate(0.000000,260.000000) scale(0.100000,-0.100000)"
fill="#000000" stroke="none">
<path d="M1209 2206 c-2 -2 -24 -6 -49 -9 -152 -19 -341 -114 -471 -238 -52
-50 -129 -140 -129 -151 0 -2 19 -5 43 -6 24 -2 56 -6 72 -10 25 -7 33 -3 73
41 238 253 626 317 930 151 78 -42 108 -64 178 -131 51 -48 125 -142 137 -176
5 -14 14 -17 39 -12 18 3 47 7 65 9 18 1 35 5 38 7 10 11 -111 190 -170 250
-129 133 -300 227 -480 265 -34 7 -270 16 -276 10z"/>
<path d="M472 1683 c-101 -26 -182 -96 -235 -203 -30 -60 -32 -72 -32 -165 0
-90 3 -106 30 -160 60 -125 177 -204 312 -213 208 -13 372 124 397 334 l5 40
-229 0 -230 0 -1 -23 c-1 -13 -2 -33 -2 -45 -1 -23 -1 -23 166 -26 179 -3 183
-4 150 -52 -82 -124 -216 -165 -339 -105 -57 28 -112 87 -136 145 -8 19 -16
65 -17 103 -5 151 105 277 248 283 67 3 122 -16 176 -60 33 -28 51 -35 93 -37
28 -2 54 0 58 4 4 3 -1 19 -11 33 -31 48 -88 95 -151 125 -73 35 -170 44 -252
22z"/>
<path d="M1130 1554 c-43 -19 -80 -64 -83 -101 -2 -26 1 -28 36 -30 30 -1 37
3 37 17 0 25 48 61 75 57 53 -7 84 -61 60 -106 -16 -32 -33 -41 -74 -41 -23 0
-27 -4 -25 -22 1 -13 3 -31 3 -40 1 -12 9 -18 26 -18 102 0 141 -134 53 -181
-55 -29 -117 -10 -138 42 -17 41 -28 50 -59 44 -33 -6 -34 -9 -21 -49 43 -132
206 -164 304 -60 53 58 51 168 -4 221 l-29 27 26 30 c21 26 25 37 21 81 -10
114 -106 173 -208 129z"/>
<path d="M2004 1545 c-184 -82 -226 -329 -79 -464 53 -49 104 -72 168 -76 117
-7 217 47 272 146 26 47 30 64 30 134 0 66 -5 89 -25 129 -68 132 -231 191
-366 131z m209 -74 c77 -47 107 -107 102 -199 -9 -181 -212 -262 -339 -135
-64 64 -78 162 -35 250 47 97 184 139 272 84z"/>
<path d="M1583 1518 c-14 -24 -51 -81 -81 -128 -69 -107 -83 -140 -84 -200 -1
-133 137 -224 259 -170 25 11 53 30 64 42 104 122 31 319 -118 320 -18 0 -33
2 -33 5 0 2 13 23 29 46 15 23 40 61 55 85 l26 42 -45 0 c-42 0 -46 -3 -72
-42z m96 -243 c30 -34 35 -51 33 -104 -3 -52 -59 -100 -114 -96 -39 3 -78 32
-94 70 -18 44 -18 59 2 101 20 41 56 63 105 64 30 0 43 -7 68 -35z"/>
<path d="M1955 855 c-151 -220 -398 -347 -661 -340 -207 6 -381 83 -534 235
l-85 85 -72 0 c-44 0 -69 -4 -65 -10 25 -45 70 -102 124 -156 176 -180 376
-268 628 -275 262 -7 489 84 673 272 64 66 163 212 151 223 -5 5 -34 12 -65
15 l-55 7 -39 -56z"/>
</g>
</svg>
